<mxfile host="app.diagrams.net" modified="2021-12-15T18:42:20.312Z" agent="5.0 (Windows NT 10.0; Win64; x64) AppleWebKit/537.36 (KHTML, like Gecko) Chrome/96.0.4664.93 Safari/537.36 Edg/96.0.1054.53" etag="95rqqp505iFtVxQ90OMG" version="15.9.6" type="github">
  <diagram id="uWsPakvDBmtAWFA21BX1" name="Page-1">
    <mxGraphModel dx="1038" dy="2883" grid="1" gridSize="10" guides="1" tooltips="1" connect="1" arrows="1" fold="1" page="1" pageScale="1" pageWidth="1654" pageHeight="2336" math="0" shadow="0">
      <root>
        <mxCell id="0" />
        <mxCell id="1" parent="0" />
        <mxCell id="ISnNZ_Wo0CkUiuiWw7Ft-1" value="Genre" style="swimlane;childLayout=stackLayout;horizontal=1;startSize=30;horizontalStack=0;rounded=1;fontSize=14;fontStyle=0;strokeWidth=2;resizeParent=0;resizeLast=1;shadow=0;dashed=0;align=center;fillColor=#d5e8d4;strokeColor=#82b366;" parent="1" vertex="1">
          <mxGeometry x="120" y="260" width="180" height="120" as="geometry" />
        </mxCell>
        <mxCell id="ISnNZ_Wo0CkUiuiWw7Ft-2" value="+Genre ID - int(PK)&#xa;Genre Name -varchar&#xa;Genre Description - varchar&#xa;" style="align=left;strokeColor=none;fillColor=none;spacingLeft=4;fontSize=12;verticalAlign=top;resizable=0;rotatable=0;part=1;" parent="ISnNZ_Wo0CkUiuiWw7Ft-1" vertex="1">
          <mxGeometry y="30" width="180" height="90" as="geometry" />
        </mxCell>
        <mxCell id="ISnNZ_Wo0CkUiuiWw7Ft-3" value="TV Shows" style="swimlane;childLayout=stackLayout;horizontal=1;startSize=30;horizontalStack=0;rounded=1;fontSize=14;fontStyle=0;strokeWidth=2;resizeParent=0;resizeLast=1;shadow=0;dashed=0;align=center;fillColor=#d5e8d4;strokeColor=#82b366;" parent="1" vertex="1">
          <mxGeometry x="480" y="140" width="160" height="160" as="geometry" />
        </mxCell>
        <mxCell id="ISnNZ_Wo0CkUiuiWw7Ft-4" value="+TV Show ID - int(PK)&#xa;TV Show Title - varchar&#xa;Release Date - date&#xa;Rating- decimal(2,1)&#xa;Resume - varchar&#xa;CollectionID(FK) - int&#xa;GenreID - int (FK)&#xa;&#xa;&#xa;" style="align=left;strokeColor=none;fillColor=none;spacingLeft=4;fontSize=12;verticalAlign=top;resizable=0;rotatable=0;part=1;" parent="ISnNZ_Wo0CkUiuiWw7Ft-3" vertex="1">
          <mxGeometry y="30" width="160" height="130" as="geometry" />
        </mxCell>
        <mxCell id="ISnNZ_Wo0CkUiuiWw7Ft-5" value="Movies" style="swimlane;childLayout=stackLayout;horizontal=1;startSize=30;horizontalStack=0;rounded=1;fontSize=14;fontStyle=0;strokeWidth=2;resizeParent=0;resizeLast=1;shadow=0;dashed=0;align=center;fillColor=#d5e8d4;strokeColor=#82b366;" parent="1" vertex="1">
          <mxGeometry x="490" y="330" width="160" height="140" as="geometry" />
        </mxCell>
        <mxCell id="ISnNZ_Wo0CkUiuiWw7Ft-6" value="+Movie ID - int(PK)&#xa;Movie Title - varchar&#xa;Release Date - date&#xa;Rating - decimal - (2,1)&#xa;Resume - varchar&#xa;CollectionID(FK) - intÂ &#xa;GenreID - int(FK)&#xa;&#xa;" style="align=left;strokeColor=none;fillColor=none;spacingLeft=4;fontSize=12;verticalAlign=top;resizable=0;rotatable=0;part=1;" parent="ISnNZ_Wo0CkUiuiWw7Ft-5" vertex="1">
          <mxGeometry y="30" width="160" height="110" as="geometry" />
        </mxCell>
        <mxCell id="ISnNZ_Wo0CkUiuiWw7Ft-7" value="" style="edgeStyle=entityRelationEdgeStyle;fontSize=12;html=1;endArrow=ERzeroToMany;startArrow=ERmandOne;rounded=0;exitX=1;exitY=0.25;exitDx=0;exitDy=0;entryX=0;entryY=0;entryDx=0;entryDy=0;" parent="1" source="ISnNZ_Wo0CkUiuiWw7Ft-2" target="ISnNZ_Wo0CkUiuiWw7Ft-4" edge="1">
          <mxGeometry width="100" height="100" relative="1" as="geometry">
            <mxPoint x="300" y="140" as="sourcePoint" />
            <mxPoint x="400" y="40" as="targetPoint" />
          </mxGeometry>
        </mxCell>
        <mxCell id="ISnNZ_Wo0CkUiuiWw7Ft-8" value="" style="edgeStyle=entityRelationEdgeStyle;fontSize=12;html=1;endArrow=ERzeroToMany;startArrow=ERmandOne;rounded=0;exitX=1;exitY=0.5;exitDx=0;exitDy=0;entryX=0;entryY=0.25;entryDx=0;entryDy=0;" parent="1" source="ISnNZ_Wo0CkUiuiWw7Ft-2" target="ISnNZ_Wo0CkUiuiWw7Ft-6" edge="1">
          <mxGeometry width="100" height="100" relative="1" as="geometry">
            <mxPoint x="310" y="230" as="sourcePoint" />
            <mxPoint x="410" y="130" as="targetPoint" />
          </mxGeometry>
        </mxCell>
        <mxCell id="ISnNZ_Wo0CkUiuiWw7Ft-9" value="Collection" style="swimlane;childLayout=stackLayout;horizontal=1;startSize=30;horizontalStack=0;rounded=1;fontSize=14;fontStyle=0;strokeWidth=2;resizeParent=0;resizeLast=1;shadow=0;dashed=0;align=center;fillColor=#d5e8d4;strokeColor=#82b366;" parent="1" vertex="1">
          <mxGeometry x="720" y="250" width="160" height="120" as="geometry" />
        </mxCell>
        <mxCell id="ISnNZ_Wo0CkUiuiWw7Ft-10" value="+Collection ID - int(PK)&#xa;Collection Name - varchar&#xa;&#xa;" style="align=left;strokeColor=none;fillColor=none;spacingLeft=4;fontSize=12;verticalAlign=top;resizable=0;rotatable=0;part=1;" parent="ISnNZ_Wo0CkUiuiWw7Ft-9" vertex="1">
          <mxGeometry y="30" width="160" height="90" as="geometry" />
        </mxCell>
        <mxCell id="ISnNZ_Wo0CkUiuiWw7Ft-11" value="" style="edgeStyle=entityRelationEdgeStyle;fontSize=12;html=1;endArrow=ERzeroToMany;endFill=1;startArrow=ERzeroToMany;rounded=0;exitX=1;exitY=0.5;exitDx=0;exitDy=0;entryX=0;entryY=0.25;entryDx=0;entryDy=0;" parent="1" source="ISnNZ_Wo0CkUiuiWw7Ft-4" target="ISnNZ_Wo0CkUiuiWw7Ft-10" edge="1">
          <mxGeometry width="100" height="100" relative="1" as="geometry">
            <mxPoint x="790" y="420" as="sourcePoint" />
            <mxPoint x="890" y="320" as="targetPoint" />
          </mxGeometry>
        </mxCell>
        <mxCell id="ISnNZ_Wo0CkUiuiWw7Ft-12" value="" style="edgeStyle=entityRelationEdgeStyle;fontSize=12;html=1;endArrow=ERzeroToMany;endFill=1;startArrow=ERzeroToMany;rounded=0;exitX=1;exitY=0.5;exitDx=0;exitDy=0;entryX=0;entryY=0.5;entryDx=0;entryDy=0;" parent="1" source="ISnNZ_Wo0CkUiuiWw7Ft-6" target="ISnNZ_Wo0CkUiuiWw7Ft-10" edge="1">
          <mxGeometry width="100" height="100" relative="1" as="geometry">
            <mxPoint x="730" y="400" as="sourcePoint" />
            <mxPoint x="830" y="300" as="targetPoint" />
          </mxGeometry>
        </mxCell>
        <mxCell id="ISnNZ_Wo0CkUiuiWw7Ft-13" value="Subscription" style="swimlane;childLayout=stackLayout;horizontal=1;startSize=30;horizontalStack=0;rounded=1;fontSize=14;fontStyle=0;strokeWidth=2;resizeParent=0;resizeLast=1;shadow=0;dashed=0;align=center;fillColor=#d5e8d4;strokeColor=#82b366;fontColor=default;" parent="1" vertex="1">
          <mxGeometry x="330" y="650" width="180" height="120" as="geometry" />
        </mxCell>
        <mxCell id="ISnNZ_Wo0CkUiuiWw7Ft-14" value="Subscription ID - int(PK)&#xa;&#xa;Subscription Date - date&#xa;Subscription Type - varchar(FK)&#xa;Price - decimal(3,2)&#xa;" style="align=left;strokeColor=none;fillColor=none;spacingLeft=4;fontSize=12;verticalAlign=top;resizable=0;rotatable=0;part=1;fontColor=default;" parent="ISnNZ_Wo0CkUiuiWw7Ft-13" vertex="1">
          <mxGeometry y="30" width="180" height="90" as="geometry" />
        </mxCell>
        <mxCell id="ISnNZ_Wo0CkUiuiWw7Ft-15" value="Subscription Type" style="swimlane;childLayout=stackLayout;horizontal=1;startSize=30;horizontalStack=0;rounded=1;fontSize=14;fontStyle=0;strokeWidth=2;resizeParent=0;resizeLast=1;shadow=0;dashed=0;align=center;fillColor=#d5e8d4;strokeColor=#82b366;fontColor=default;" parent="1" vertex="1">
          <mxGeometry x="70" y="490" width="180" height="120" as="geometry" />
        </mxCell>
        <mxCell id="ISnNZ_Wo0CkUiuiWw7Ft-16" value="Type ID - int(PK)&#xa;Resolution - int&#xa;Video quality - varchar&#xa;Allowed number of devices - int&#xa;" style="align=left;strokeColor=none;fillColor=none;spacingLeft=4;fontSize=12;verticalAlign=top;resizable=0;rotatable=0;part=1;fontColor=default;" parent="ISnNZ_Wo0CkUiuiWw7Ft-15" vertex="1">
          <mxGeometry y="30" width="180" height="90" as="geometry" />
        </mxCell>
        <mxCell id="ISnNZ_Wo0CkUiuiWw7Ft-17" value="" style="edgeStyle=entityRelationEdgeStyle;fontSize=12;html=1;endArrow=ERmandOne;startArrow=ERmandOne;rounded=0;exitX=1;exitY=0.5;exitDx=0;exitDy=0;entryX=0;entryY=0.5;entryDx=0;entryDy=0;" parent="1" source="ISnNZ_Wo0CkUiuiWw7Ft-15" target="ISnNZ_Wo0CkUiuiWw7Ft-14" edge="1">
          <mxGeometry width="100" height="100" relative="1" as="geometry">
            <mxPoint x="120" y="530" as="sourcePoint" />
            <mxPoint x="220" y="430" as="targetPoint" />
          </mxGeometry>
        </mxCell>
        <mxCell id="9_1Muu3frSbeQLm1UMuF-1" value="Customer User Account" style="swimlane;childLayout=stackLayout;horizontal=1;startSize=30;horizontalStack=0;rounded=1;fontSize=14;fontStyle=0;strokeWidth=2;resizeParent=0;resizeLast=1;shadow=0;dashed=0;align=center;fillColor=#d5e8d4;strokeColor=#82b366;" parent="1" vertex="1">
          <mxGeometry x="690" y="700" width="160" height="230" as="geometry" />
        </mxCell>
        <mxCell id="9_1Muu3frSbeQLm1UMuF-2" value="+Customer ID - int(PK)&#xa;First Name - varchar&#xa;Last Name -varchar&#xa;Email -varchar&#xa;Address -varchar(FK)&#xa;Phone Number -varchar&#xa;Password -varchar&#xa;Created In - date&#xa;Last Sign On - date&#xa;Collections - varchar&#xa;PaymentID(FK) - int&#xa;SubscriptionID(FK) - int&#xa;&#xa;&#xa;" style="align=left;strokeColor=none;fillColor=none;spacingLeft=4;fontSize=12;verticalAlign=top;resizable=0;rotatable=0;part=1;" parent="9_1Muu3frSbeQLm1UMuF-1" vertex="1">
          <mxGeometry y="30" width="160" height="200" as="geometry" />
        </mxCell>
        <mxCell id="9_1Muu3frSbeQLm1UMuF-3" value="" style="edgeStyle=entityRelationEdgeStyle;fontSize=12;html=1;endArrow=ERmandOne;startArrow=ERmandOne;rounded=0;exitX=1;exitY=0.5;exitDx=0;exitDy=0;entryX=0;entryY=0.5;entryDx=0;entryDy=0;" parent="1" source="ISnNZ_Wo0CkUiuiWw7Ft-14" target="9_1Muu3frSbeQLm1UMuF-2" edge="1">
          <mxGeometry width="100" height="100" relative="1" as="geometry">
            <mxPoint x="550" y="680" as="sourcePoint" />
            <mxPoint x="650" y="580" as="targetPoint" />
          </mxGeometry>
        </mxCell>
        <mxCell id="9_1Muu3frSbeQLm1UMuF-4" value="Address" style="swimlane;childLayout=stackLayout;horizontal=1;startSize=30;horizontalStack=0;rounded=1;fontSize=14;fontStyle=0;strokeWidth=2;resizeParent=0;resizeLast=1;shadow=0;dashed=0;align=center;fillColor=#d5e8d4;strokeColor=#82b366;" parent="1" vertex="1">
          <mxGeometry x="990" y="600" width="180" height="120" as="geometry" />
        </mxCell>
        <mxCell id="9_1Muu3frSbeQLm1UMuF-5" value="Address ID - int(PK)&#xa;Country - varchar&#xa;City - varchar&#xa;Street - varchar&#xa;" style="align=left;strokeColor=none;fillColor=none;spacingLeft=4;fontSize=12;verticalAlign=top;resizable=0;rotatable=0;part=1;fontColor=default;" parent="9_1Muu3frSbeQLm1UMuF-4" vertex="1">
          <mxGeometry y="30" width="180" height="90" as="geometry" />
        </mxCell>
        <mxCell id="9_1Muu3frSbeQLm1UMuF-6" value="" style="edgeStyle=entityRelationEdgeStyle;fontSize=12;html=1;endArrow=ERmandOne;startArrow=ERmandOne;rounded=0;exitX=1;exitY=0.5;exitDx=0;exitDy=0;entryX=0;entryY=0.5;entryDx=0;entryDy=0;" parent="1" source="9_1Muu3frSbeQLm1UMuF-2" target="9_1Muu3frSbeQLm1UMuF-5" edge="1">
          <mxGeometry width="100" height="100" relative="1" as="geometry">
            <mxPoint x="890" y="790" as="sourcePoint" />
            <mxPoint x="990" y="690" as="targetPoint" />
          </mxGeometry>
        </mxCell>
        <mxCell id="9_1Muu3frSbeQLm1UMuF-7" value="Payment" style="swimlane;childLayout=stackLayout;horizontal=1;startSize=30;horizontalStack=0;rounded=1;fontSize=14;fontStyle=0;strokeWidth=2;resizeParent=0;resizeLast=1;shadow=0;dashed=0;align=center;fillColor=#d5e8d4;strokeColor=#82b366;" parent="1" vertex="1">
          <mxGeometry x="520" y="510" width="160" height="120" as="geometry" />
        </mxCell>
        <mxCell id="9_1Muu3frSbeQLm1UMuF-8" value="+Payment ID - int(PK)&#xa;Payment Method - varchar&#xa;Payment Date - date&#xa;Amount Due - decimal(3,2)&#xa;" style="align=left;strokeColor=none;fillColor=none;spacingLeft=4;fontSize=12;verticalAlign=top;resizable=0;rotatable=0;part=1;" parent="9_1Muu3frSbeQLm1UMuF-7" vertex="1">
          <mxGeometry y="30" width="160" height="90" as="geometry" />
        </mxCell>
        <mxCell id="9_1Muu3frSbeQLm1UMuF-9" value="" style="edgeStyle=entityRelationEdgeStyle;fontSize=12;html=1;endArrow=ERmandOne;startArrow=ERmandOne;rounded=0;exitX=1;exitY=0.5;exitDx=0;exitDy=0;entryX=0;entryY=0;entryDx=0;entryDy=0;" parent="1" source="9_1Muu3frSbeQLm1UMuF-8" target="9_1Muu3frSbeQLm1UMuF-2" edge="1">
          <mxGeometry width="100" height="100" relative="1" as="geometry">
            <mxPoint x="730" y="570" as="sourcePoint" />
            <mxPoint x="830" y="470" as="targetPoint" />
          </mxGeometry>
        </mxCell>
        <mxCell id="9_1Muu3frSbeQLm1UMuF-10" value="" style="edgeStyle=entityRelationEdgeStyle;fontSize=12;html=1;endArrow=ERzeroToMany;startArrow=ERmandOne;rounded=0;exitX=1;exitY=0;exitDx=0;exitDy=0;" parent="1" source="9_1Muu3frSbeQLm1UMuF-2" target="ISnNZ_Wo0CkUiuiWw7Ft-10" edge="1">
          <mxGeometry width="100" height="100" relative="1" as="geometry">
            <mxPoint x="830" y="520" as="sourcePoint" />
            <mxPoint x="930" y="420" as="targetPoint" />
          </mxGeometry>
        </mxCell>
        <mxCell id="W-6Xp08tDCPKwR9iL3cm-1" value="" style="shape=image;imageAspect=0;aspect=fixed;verticalLabelPosition=bottom;verticalAlign=top;image=data:image/png,iVBORw0KGgoAAAANSUhEUgAABQAAAALQCAYAAADPfd1WAAAABHNCSVQICAgIfAhkiAAAAF96VFh0UmF3IHByb2ZpbGUgdHlwZSBBUFAxAAAImeNKT81LLcpMVigoyk/LzEnlUgADYxMuE0sTS6NEAwMDCwMIMDQwMDYEkkZAtjlUKNEABZiYm6UBoblZspkpiM8FAE+6FWgbLdiMAAAgAElEQVR4nOzda5Rmd10v+N9/711VfanqTudCJPdA4GAEBbkIiAICB4iCURIghIvgQXDOrDXvzlnzbs6ambXmzVmz5sURBQ0QLkGJyjGSQQXxEoXFETlRVEZCSCedxECSTnVVd3V17f3/z4vqeGJMpy/p6v/eVZ/PWuksmqrn+eZ5nr2fZ3+f/yUCAAAAAAAAAAAAAAAAAAAAAAAAAAAAAAAAAAAAAAAAAAAAAAAAAAAAAAAAAAAAAAAAAAAAAAAAAAAAAAAAAAAAAAAAAAAAAAAAAAAAAAAAAAAAAAAAAAAAAAAAAAAAAAAAAAAAAAAAAAAAAAAAAAAAAAAAAAAAAAAAAAAAAAAAAAAAAAAAAAAAAAAAAAAAAAAAAAAAAAAAAAAAAAAAAAAAAAAAAAAAAAAAAAAAAAAAAAAAAAAAAAAAAAAAAAAAAAAAAAAAAAAAAAAAAAAAAAAAAAAAAAAAAAAAAAAAAAAAAAAAAAAAAAAAAAAAAAAAAAAAAAAAAAAAAAAAAAAAAAAAAAAAAAAAAAAAAAAAAAAAAAAAAAAAAAAAAAAAAAAAAAAAAAAAAAAAAAAAAAAAAAAAAAAAAAAAAAAAAAAAAAAAAAAAAAAAAAAAAAAAAAAAAAAAAAAAAAAAAAAAAAAAAAAAAAAAAAAAAAAAAAAAAAAAAAAAAAAAAAAAAAAAAAAAAAAAAAAAAAAAAAAAAAAAAAAAAAAAAAAAAAAAAAAAAAAAAAAAAAAAAAAAAAAAAAAAAAAAAAAAAAAAAAAAAAAAAAAAAAAAAAAAAAAAAAAAAAAAAAAAAAAAAAAAAAAAAAAAAAAAAAAAAAAAAAAAAAAAAAAAAAAAAAAAAAAAAAAAAAAAAAAAAAAAAAAAAAAAAAAAAAAAAAAAAAAAAAAAAAAAAAAAAAAAAAAAAAAAAAAAAAAAAAAAAAAAAAAAAAAAAAAAAAAAAAAAAAAAAAAAAAAAAAAAAAAAAAAAAAAAAAAAAAAAAAAAAAAAAAAAAAAAAAAAAAAAAAAAAAAAAAAAAAAAAAAAAAAAAAAAAAAAAAAAAAAAAAAAAAAAAAAAAAAAAAAAAAAAAAAAAAAAAAAAAAAAAAAAAAAAAAAAAAAAAAAAAAAAAAAAAAAAAAAAAAAAAAAAAAAAAAAAAAAAAAAAAAAAAAAAAAAAAAAAAAAAAAAAAAAAAAAAAAAAAAAAAAAAAAAAAAAAAAAAAAAAAAAAAAAAAAAAAAAAAAAAAAAAAAAAAAAAAAAAAAAAAAAAAAAAAAAAAAAAAAAAAAAAAAAAAAAAAAAAAAAAAAAAAAAAAAAAAAAAAAAAAAAAAAAAAAAAAAAAAAAAAAAAAAAAAAAAAAAAAAAAAAAAAAAAAAAAAAAAAAAAAAAAAAAAAAAAAAAAAAAAAAAAAAAAAAAAAAAAAAAAAAAAAAAAAAAAAAAAAAAAAAAAAAAAAAAAAAAAAAAAAAAAAAAAAAAAAAAAAAAAAAAAAAAAAAAAAAAAAAAAAAAAAAAAAAAAAAAAAAAAAAAAAAAAAAAAAAAAAAAAAAAAAAAAAAAAAAAAAAAAAAAAAAAAAAAAAAAAAAAAAAAAAAAAAAAAAAAAAAAAAAAAAAAAAAAAAAAAAAAAAAAAAAAAAAAAAAAAAAAAAAAAAAAAAAAAAAAAAAAAAAAAAAAAAAAAAAAAAAAAAAAAAAAAAAAAAAAAAAAAAAAAAAAAAAAAAAAAAAAAAAAAAAAAAAAAAAAAAAAAAAAAAAAAAAAAAAAAAAAAACAiItUOwMZY3HXl2WlY/um2pC4iSu08x5D6Lv5p94G9/2/tIBvp4I5LfyAi3hjjfR4eK0UX9+88sPcLtYMcz8QeV05Nyk1+eH75ns+niP5M3OFEzp3UccbPj85zW0bqh+HPd6/uu+NM3eHS/GU/26bhR4e2zWfqPk9VOwxNaZrf3bm497/XzsLJm9h5bJSfg0tcOXtw59LVqQw7I2am8Dg+Vioz/d75xXv/uHaQM+XQ9osvKKl5fUzjNf84a2lIXb82t/xfz3n44QO103D6dbUDsDG6dPCS0jU3zkQa7ZknRUQe8uKh7RdfuWPlnvtq59koZVj7oW3btt0wjPaZ+B/aSLEyDF+LiFF98HkiU3pcOTVNRBwe8nceiPO/GPHAGSkAp3DupI4a50fnua2hjRQ5yi9FxBkrACOV62abmbcNZfyvrbaZiZW1fl9EKAAnaErnsfF+Dv77oXSXvn9bmnntFI7Zx1r/LNc8cGDhOT+0a+lbD9XOcyYMbfO/bm/b/3kKr/nHa9K2ONwPf3P2wztujni4dhw2gAJwkyqpySX3K0dSu33Mp56ubXb3bbkqVuLXa2fZKCXSsBYl+gm8CXQREU1eqZ3jREzpceXUtOv/OnR+NGfsSZ7KuZMzr8b50Xlua+gioom0dkbvNKWVI1FiCheobVR4fDhtpnQeG+vn4BQxLA3xK0fa8topHLOP17bd+blffkNEfKp2lo12cMclT8+R37oaKUY/vPoJdCWiyfF/p9g3uuOA06OpHYANNfp3iBIRMaRryiZ/LY7+iThqPWc7lbiTeVx5Smo8zV5a/Cu1zo9ejJuf55jNbiqv8TF/Dl6dW/7iUPpvt7WDnKKS2neXLbD8WEn5+q7tnjbF8q+JiL70d63N7PqvtbOwcTZ16cL45SiRIl6+NHvBs2pnAQAAGJtzH3poKa2lm5sJdmg5SqQmv+LgnmdeWTvLRirx9B0lte8tk6m8/6U2UqTSffKsxb/dXzsLG0cBSFUlItq2WUizs1fXzgIAADBKfXdTPwyHa8c4WSUiutTtyIfz22tn2UjL87Ovb9vmyqF2kFOQIqIf8v7hSP+x2lnYWApAqlv/jqS8pViTEgAA4F/ZuXbnN0uk29qJjgJsZso15ZxzFmpn2UAfnN4zs66NFKWJW3av3vOd2lnYWApAqhuiRDTxgpVdFz+/dhYAAICxSRGllHLjFEumISKalJ6zcmTXq2pn2QgHd1/ywmji1VPY7OaJ9CUPpZQP187BxlMAMgpdarohmrfVzgEAADBGKc1+oR/yfVO8iE8RkXN+d+0cG6H08YtdamZq5zgVbaRIMXxlYenur9TOwsab4rmDTWh9sdT85ofOPntX7SwAAABjs7B8x/dTiVumuBnIECVKyq9dmbv0stpZTqeVbRdcXFJ52zDR0X8RETHEh1LEFDcv5iQpABmFISLaaJ+1rd/1stpZAAAAxqgd1j4+lNzXznGySkR0bXfW0MXP185yOvXdzPVd2509xfqvjYgh999Z6865tXYWzgwFIKORUko5smnAAAAAT2Db4fu+VnL89RQ3AykRUVJ+Z4krZ2tnOR3KOecsRJPfWyY6+i9Fiijp43sWb3+kdhbODAUgo5GjROR4w9L8FefVzgIAADA2KWJIqXxqevXf+jTg1DQ/vDx/4KW1s5wOy/2uN7Spe/ZQO8gpSBHRD/3DXb/28dpZOHMUgIxGjoiubZ+ey+HX1c4CAAAwRk2ff3st9w9NsQRsU9NG0/xC7RxPVYlIMeQPTvE5iFjf/KM07ee2H77/7tpZOHMUgIxKiYjUtG8rMcEx7QAAABtsx8q+e9PQfGGK04DXZ32Vq5Z3Xn5+7SxPxdLChS+JJn6yn+j0377kPsraR2rn4MxSADIqOUqkEq88MHfxM2pnAQAAGKOmSzfmkifXPq3P+urOL93wptpZnoqUmg90qelq5zgVbaSIHH/2n5fu/VrtLJxZCkBGZX13qGZ3zLVX1c4CAAAwRjsOrN6W8/D3be0gp6BERJTyzjLRPmJl7tLLUm6uHiY6+i8iIpX8a/9pvY9lC5nkAcfmViIiRXlbWd+ZHAAAgMdIcf+hiOYzzQSnAa8XZ82PL+6+5AW1s5yKfq68q2ubPVOs/9qIGEr/7dW5g1+onYUzTwHI6AxRosnxokMzlz23dhYAAIBROrJ289qQl6ZXAUZ0qenakq6rneNklT0v3B1R3j3V0X8pUjR9+cg5Dz98oHYWzjwFIKPUts1c6cpbaucAAAAYo4Uj938rIv5kspuBRH7LI7uft6d2lpNx8MiDV7Wpu2KKc2dTRAx9/2Aq8enaWahDAcgolShR2vxzJZ6+o3YWAACAcSo3TnEsWo6INnWXtcPia2pnOVElook2/3LtHKeqjRQ52pt3rOy7t3YW6lAAMkpDRKSmuXJ5rnlJ7SwAAABj1Ld7vjiU/q4pXtivj1ts3ls5xgk7vO2Cl5ZoXj7V6b99yWulHX6jdg7qmeJ5gi2iTU2TunZy60IAAACcCXsWb38kIn5nupuBlJ84MHvBv6md5UT0zcy/71IzyY0qu0gROf5k94F7vl47C/UoABmtHCVKW95QJrYuBAAAwJnSrDSf7Id8pHaOk1UiYqZtFtKO2bfXznI8i3MXXZGadNVUR/+VUkpEfChiov8BnBYKQEbr6LoQlywPiz9VOwsAAMAY7Vjbe3tq8lcnuxlIP1wz9rXf29n23V2bzppie9ZGxJCHb84vD1+onYW6FICMWoqINMHt4QEAAM6EFJFT33xsevXf+trvTdP80IFdc6+oneVYHtn9vD0l5XdOdfRfihQpNTek2LdSOwt1KQAZtfWTbH7loe0XXlQ7CwAAwBiV1NzaD/0DU7zAb1KTmr68u3aOY2nWlt7Upu7yXDvIKUgR0Q/99yI3N9XOQn1TPD+whZSIaLvu3GG2fWPtLAAAAGM0f/C7D6QSt0x2M5CmXLWy7ZkX187yeCWijS7/Uu0cp2p9WnjzW/MHv/tA7SzUpwBk9Mr6H9eVmOC7GQAAwBlQUvvJoeTJDVQrEdG17Z5hdri6dpbHW5678CeaSC+b6vTfYehXm9W4oXYOxkEByOjlKJGi/NjBPc+8snYWAACAMZpfvusvSo5vTHEzkBIRJZd3lYiudpbHKrPpl9vUTLI36SJFifjSzrW936idhXGY5AuZraVERJe6HWWtf3PtLAAAAGOUIvpUhpumV/+tTwNOTfzo4W0XvKR2lketzl74rKa0b5jq6L8SESWlX6mdg/FQADIJ6+PY8zUlrpirHAUAAGCU1vr2t/th2D/FErBNTbvWzr6rdo5HrbXte7u22TXF+q+NFMPQf2NhafaLtbMwHgpAJmF9YdjmR5YWDr2odhYAAIAx2rO6965o2y9OcRpwjhIplTcvzV9xXu0sj+zevafMpOunOvovRURu2o+muGO1dhbGQwHIZHSpaVNprq2dAwAAYKyanD82xdoqR0TXNhc0ee2na2dp13a/pUvNJZPbUSXWS55+6B9oh+Y3a2dhXBSATEaOEtGkqx7es2d37SwAAABjtGN2+c9zKd9qawc5BSUichPXl6g3hLFEzESTPjDFEjViffpvRLlp/uCd36udhXFRADIZOSLaaK/o+l0/XjsLAADAGKWHHloqZfjNZoLTgIcokaK84tDMZT9cK8PBnZe/KjXxwilO/00R0Zd+Jc3M3lA7C+OjAGRSUkopDfGO2jkAAADGKnUzN/elPzS9CjCia9ttpSvX1UuQP9imZooP3frov6H9g5377/xm7SyMjwKQSVnfDCS/7uCOS55eOwsAAMAY7dx/59+V3P7ZVEcBlpn8lhpLPy2d/awfjDa/YYqj/yKOjqAs8aEUE/0PYEMpAJmUEhFd2z2tpOE1tbMAAACMUYooqZQba+c4FUeXfnrmzNruV53xO++PvLdL3Y4ptmdtpChD+fqOQ3d9uXYWxkkByOSUiChp5vqouDAsAADAmO3sdn1hKP09U7zoTymlVOIXzuR9Ls3Pnxs53jHV0X8pIqLJv5Ei1mpnYZymeC5gi8vrFeDLD8xeeEXtLAAAAGOUFv92f+T43GSnAafy6sW5i595pu4zN+e9vWubC/OZusPTqImIfsj3Rt7+2dpZGC8FIJNTImKmbXbFTPrZ2lkAAADGqm3KJ/qS+9o5TtbRa77dzUzz1jNzf1fMpdy/b5pj/45u/tHETQvL//hg7SyMlwKQScoRkVJ7bYloa2cBNlSNr6yn9zU5G279RTF4bXDaeVEBG2n7gX1/HRFfayd4tlkfiZevK3Hpto2+r6WFtdd0Tfv8KU7/TRGxVvqDMTP3G7WzMG5d7QBwKoYokZp4/uLuS54fi3d/vXYeOJ4UETMT/OBVUxMRQ8SOByKfsQculdxEarfPRprUx78cEf2EEk/xeGgjRZ+b7bVzjNkUn9cxaCPFSpSZ2jmAzSlFDEuRb0zRvLx2lpO1fs3XPPfg3NqPx2p8aaPup0SkpYgPpJQmuXluGyn6lG5deOgfv1U7C+OmAGSy2tTMxpF8bUQoABm1FBFlKPuODMP/2aRmdTDg44SkiBRNeej8eGD1TN1nX3benfrF9xyObjLvj22kYejKlW1K/2EKa9Y0EVFKfKvvy/81RJnMKO42IjVd3Fc7x1hN9XkdgzYilX74s9o5gM2r6dPv9U3/v6e2PW9q9VabmtTPdddvZAF4cM8zfigNa68bJvoRfSi5pNXhV2vnYPwmc4EDj1eiRJ6Jq8v8ef9H+v73l2vngWNZH8mWv7+wco835pHbfeDvH46IG2vnOFmLuy56cYqZ/zCFb61TpMgp75s/tPfjtbNw+nheAcZr56G771/addnn20i/MKUZAxHrowAjl585tP3iC3as3LMhX8SVtSO/ONPObF+b2GMTsT76b8jla/Or9/oiieOyBiCTNUREE/GsxQMzL62dBU5AW+LpO2qHYHNqVsvO2hlOSkm+gNyMPK8Ao5VWj3xqKHlyDVeJiK7tzhtm4k0bcfvLO5/xtIh03RTX/os4Oq0ox0dSxOQ2euHMUwAyaW1qmqZr31Y7BwAAwFjtXJ25reT8N1PcDGS9mmveUzZgBmNuhnd0bXf+FJZRebwmIvqS78ndzt+tnYVpUAAyaTlKpNS8cWn+2efWzgIAADBGKfYejmhvmmIBcHR03ksO7LroR0/n7Za4aHsq+X1loqP/2khRSrrx6BI2cFxTPP7hn+WIaNvmwlxWX1c7CwAAwFjltf63+yEvTm8MYESXmrbJzfWn8zaXFtLr2qZ97nA6b/QMSRGxNuTFcqT/WO0sTIcCkMlLEdFGemvtHAAAAGO1e3Xfd3KJP5niNOAcJaIpVz+y+3l7TtdtphIfSClN78GI9dF/kfOtu1f33VE7C9OhAGTyhihRUn7lyrbLL62dBQAAYKRKSvGxKU54zRHRpu6Srt//xtNxewdnLn1BRLxmarsiP2ooOUcTH6qdg2lRADJ56ztDtXuG2fwztbMAAACM1drMgS8Puf/OVIuAktr3lHjqQxjzXLy3a7u505HpTGsjRY7ylfnle/6ydhamZarHPfwL69/b5LeejjcDAACAzejs/fsXU59+a6rTgFOTX3FwzzOvfCq3c2j7RRemkq8bJjr6L0VE2zcfSRFTXL6QihSAbApDlIgcLz4484zn1s4CAAAwWn13Uz8Mh2vHOFklIrrU7ShluOap3E5u4rq2686dYv3XREQfw51rMwu/VzsL06MAZNPo2m572Zl/vnYOAACAsdq5duc3S6TbJjsKMMfbyznnLJzK75d4+o6S2veWiY7+ayNFlPj4WYt/u792FqZHAcimkSMi+uHnS1y6rXYWAACAMUoRpcnx6enVf+tzXpuUnnNobf4Vp/L7y/Ozr2/b5sopzp1NEdEPef+wmj5ROwvTpABk0xiiRGqa5y7P5xfXzgIAADBWuZn5/X7I902xEEgRUYZ43yn++genWHxGrI/+K03cctbq3u/WzsI0TfF4h2NqU9NExFtr5wAAABirheU7vp9K3NJMcBrwECVKyq9dmbv0spP5vcVdF70kmnh1P9Hpv33JQynlw7VzMF0KQDaVHCWiiTc9svt5e2pnAQAAGKt2WPv4UHJfO8fJKhHRtd1ZQxcntf57iu4DXWpmNijWhmojRYrhKwtLd3+ldhamSwHIppIjok3dpe2w9JO1swAAAIzVtsP3fa3k+OspbgZSIqKkeEeJ6E7k51e2XXBxysPVw0RH/0VExBAfSkeXvodToQBk00kREW26vnYOAACAsUoRQ0rlU9Or/x5d/z2evzx/0ctP5Of7bub6ru3OnmL910bEUPpvr84d+v3aWZg2BSCbzhAlUt+/+tD2iy+onQUAAGCsjqx1n+uHYf8US8A2NW0p6V3H+7lyzjkL0eT3lomO/kuRInLz0XMefvhA7SxMmwKQTadERNt15w6z6araWQAAAMbq7MN33h053TrFacA5SqQUb1reefn5T/Zzy/2uN7Spe/ZwpoKdRiki+qF/uOuPfKp2FqZPAcimVCIihvS24jUOAABwTE2XbswlT254XI6Iru3OL93wpmP9TIloYhh+eXr15ro2UpSm/dz2w/ffXTsL06ccYVPKUSJF/NjS7AXPqp0FAABgrHYcWL0t5+Hv29pBTkGJiCjlncca+LG0cMHLokk/2U90+m9fch9l7SO1c7A5KADZlEpEtG2zkGZnr66dBQAAYKxS3H8oovlMM8FpwEOUSLl56aGZS3/4if7/lGbe36Vmit1mdJEicvnz/7x079dqZ2FzUACyaa1/x1OuKREzlaMAAACM15G1m9eGvDS9CjCibZu5vD3e+fi/X5m79LKU483DREf/HU39K/9pfbYzPGUKQDatYX3FhxcsLVz4wtpZAAAAxmrhyP3fiki3TXUzkIj88/t3/8hZj/37fq68q2ubPVOs/9qIyH3+h/nltVtrZ2HzUACyqXWpaVNqrq2dAwAAYNzyDVMsy3JEtKm7vBv2v+bRvyt7Xrg7orx7qqP/UqRIZfjo+vRsOD0UgGxqZf2E/zMPnX32rtpZAAAAxqpv93xxKP1dUywJ1sctNu979H8fPPLgVW3qrpji3NkUEUPfP5hKfLp2FjaXKR7bcMKGiGijfda2ftfLamcBAAAYqz2Ltz8SEb8z1c1AIspPrM5e8OyIiNyWf1850ilrI0WO9uYdK/vurZ2FzUUByKaXUkp5KNfXzgEAADBmzUrzyX7IR2rnOFklImbaZmFtpnnzwZlLfrSJ9LKpTv8dSl4r7fAbtXOw+SgA2fRylIiU/+3yzsvPr50FAABgrHas7b09NfmrU90MpKR0fZ4b/rcmpUl2HV2kKDn/0e4D93y9dhY2n0keFHAyckR0bXd+xNprjvvDAAAAW1SKyCWlT0yv/ltf/ina9vlNO/OmoXaYU1RKKRHthyMmOnyRUVMAsiWUiCipe0ftHAAAAGOW+vaWfugfmGpZMMWNPyIi2ogY8vDN+eX+D2tnYXOa6jENJyWvV4CvWJy76IraWQAAAMZq/uB3H0glbpniZiBTliJFSs0NKfat1M7C5qQAZEs4uijs7jTb/XTtLAAAAGNWUvvJoeSpDqabnBQR/dB/L3JzU+0sbF4KQLaMHBGRyrVlfXQ1AAAAT2B++a6/KDm+McXNQKZo/XFufmv+4HcfqJ2FzUsByJYxRIkmx4sOzVz6w7WzAAAAjFWK6FOJT6v/Nl6KiKH0K02Xfr12FjY3BSBbSts2c6VL19TOAQAAMGZ9H7/bD/0jSsCN1UaKXJo/2vnIXbfXzsLmpgBkSylRosyUq8t5583XzgIAADBWZ63u/W4qzZdMA95YZf3PD1eOwRagAGRLGSIiRfzg8oHZF9XOAgAAMGa5iRtK7RCbWBsphqH/xsLS7BdrZ2HzUwCy5bSpSalrr6udAwAAYMwWZpf/PJfyLbsobowUEblpP5rijtXaWdj8FIBsOTlKlJSuWpp/9rm1swAAAIxVeuihpVKG32xMAz7tmojoh/577dD8Zu0sbA0KQLacHBFt21wUcfiVtbMAAACMWepmbu5Lf0gFeHq1kSKa+OT8wTu/VzsLW4MCkC0pRUQqyTRgAACAJ7Fz/51/V3Jzm1GAp0+KiL70h6Lb9uu1s7B1KADZkoYoUVJ+9cq2Z15cOwsAAMBYpYiSynBj7RybSRsp8pD+YOHhb/9D7SxsHQpAtqQSEV3bnd3PHrmqdhYAAIAx67s9tw6lv0eBcHoMUaItza/WzsHW4vhlyyoRkSLeUcJYdgAAgGM5a/Fv90eOz5kG/NS1kaIM5es7Dt315dpZ2FoUgGxZOUqUiBce3PPMK2tnAQAAGLOS8qf6kofaOaYuRUQ0+TdSxFrtLGwtCkC2rBIRM6nbWdbWfq52FgAAgDFbWLr36xHxtdYowFPWREQ/5Hsjb/9s7SxsPQpAtrQcERHlmhJXzFWOAgAAMFopoo/IN6r/Tl0bKdKQPrGw/I8P1s7C1qMAZEsbokRqmucuz6++uHYWAACAMWvX4vf6of++EvDkpYhYG/LSzHDko7WzsDUpANny2tS0Eena2jkAAADGbMfKPfdF037eNOCT10aKaMsX5o7c94+1s7A1KQDZ8nKUiFR+uuzZs7t2FgAAgDFLq0c+NZRcaueYmqHkkg4Pv1o7B1uXApAtL0dEm9pnLPW7X1k7CwAAwJjtXJ25reT8TaMAT1wbKUqOr+1cvffPamdh61IAQkSklFIayttq5wAAABizFHsPRzSfUSacuBQRTY5fW99IBepwzEKsbwYSTX7twR2XPL12FgAAgDHLa8Nv9UNeNAbw+JqI6Et/146Zs363dha2NgUgRESJiK7tnhaRXl87CwBMUipGNQBsEbtX930nl/gT04CPr40UqTSfSIu3P1I7C1tbVzsAjEWJiNzE20vEjWl9aUAA4ESVfO7y3IWvrh3jTOgiYm7b8jfS4qKLOWCrKinFx0rEz9YOMmYpItaGvJjXhhtrZwEFIByVo0SKePnS7AXPiiP3/X+187AZtXZLAzalIUqk1D5/Zlv3x7WznAlNpDh4uLw2YvFLtbMA1LI2c+DLMczf0aT2CqMnnlgbKfo83Lp7dd8dtbOAAhCOWp8G3CzETPMzcSQUgJxuOcW+lRP5wRIvnIlYPIElGmZLxPdnV7bP7T75OKkM29d2p7x95uR/97BuCqsAACAASURBVDgOHso717bdsb5ANLBVlIg4Elvje44uIkqkoXYOgJrO3r9/cXn7rt9uZ9N/zFvk/H+yhpJzNPGh2jkgQgEI/0KJiJLat5WI/8cOTZwuR68Qr1jaddmXI8pxLhhLs5y/d1ac0BqtqyWaHbOR4xQKwCjRz+0u0c9GpNP4ia2kmJs9eHC+fWXsj2+evtsFGA+XuQDrUh+f6dvhf4m22VY7y9i0kWKI4avzy/f8Ze0sEKEAhH9hfTfgeMHKroufHwfu+avaedg8UtvOz6b0qjiBhZLLSaylXCIitydyq0/0uyVKtKfwm8eWImJohiaVfHpvGACA0dmxtvf25blLb2sjvXbw9ci/kobyX9I/jweAuhSA8DhdarrhSHpLRCgAOW1KRKyWzf+h6GgRuVZO66hCAADGKEWUgzk+ndp4be0sY9JExFD6O/runFsj9tWOAxFxQlPMYGspUSLPlJ8r5503XzsLAADAmOVm5vf7Id+nXPgf2kgRkT6xZ/F2u8UzGo5ReJwhIrqIZx1Y3fny2lkAAADGbGH5ju+nErc0p7QozeaTIqIf8v5hNX2idhZ4LAUgPIGUmqaJuK52DgAAgLFrh7Ub+5Jz7Rxj0EaK0sQtZ63u/W7tLPBYCkB4AjlKRC6vW5p/9rm1swAAAIzZtsP3/bfI8fXWKMDoSx5KKR+unQMeTwEITyBHRNs2F6ayajFbAACAJ5Ei1koqn9zq9V8bKSKnP19YuvsrtbPA4ykA4RhSROQmrivhaywAAIAn0691n+uHYf9Wv3hKZfhQWh9TAqOiAIRjGKJEKvHKA3MXP6N2FgAAgDE7+/Cdd0dOt27VacBtRAyl//bq3MEv1M4CT0QBCMdQIqJrm90x115VOwsAAMDYNV26MZdcaueoIUWKyM1Hz3n44QO1s8ATUQDCkygR0cZwbVn/QgcAAIBj2HFg9bach7/fahdPKSL6oX+46498qnYWOBYFIDyJIUpEbl5yaOay59bOAgAAMGYp7j8UKd3cbLFpwG2kKE37ue2H77+7dhY4FgUgHEfbNnOlK2+pnQMAAGD0VvvPrA15aStVgH3JayX6X6udA56MAhCOo0REafPPlrh0W+0sAAAAY7Zw5P5vRaTbtspmIF2kKDn+ZPeBfV+rnQWejAIQjmOIEqlpnrs8n19cOwsAAMD45Ru2yk4gJSJSxK/WzgHHowCEE9CmpimlfUftHAAAAGPXt3u+OJT+rs1eOLQRkfv8D/PLR75QOwscz2Y/HuG0yFEitcNVi7uuPLt2FgAAgDHbs3j7IxHxO5t9M5AUKVIZPpri/kO1s8DxKADhBOSIaFN3SZMP/mTtLAAAAGPXpPTpvuS+do6NkiJi6PsHU4lP184CJ0IBCCcorf9xXe0cAAAAY7dj8e7/niL/5WbdDKSNFCU1n9mxsu/e2lngRCgAqS5FRJThrijDPWN+axiiRMr5pw5tv/Ci2lkAAADGLEUMJaVPjPka76kYhn61WY0baueAE6UApLr1F2FzfxqaW8f8giwR0XbducNs+8baWQAAAMYu9e0t/dA/MObrvFPRRYoS8aWda3u/UTsLnKjNdhwyVTm66Nc+O5SyVjvKkykRUYb01hKbdBw7AADAaTJ/8LsPpBK3bLbNQEopJaL9cO0ccDIUgIxEnt25Y+WvIudvjnmNiBwlmogfW5591nNqZwEAABi7ktpPDiXn2jlOlzYihjx8c365/8PaWeBkKAAZi5T2719MQ9wy3vrv6DTgtlmI2SNX184CAAAwdvPL3Vdzzn8z5oEeJyNFipSaG1LsW6mdBU6GApDRKBFd9Ks3D0M5XDvLkykREZGvKXHFXOUoAAAAo5bijtWmlE9uhvqviYh+6L8XubmpdhY4WQpARuSimZ1r3/u7EmXU3w4NUSKa5keWFlZeUDsLAADA2PV9+zv90D8y3qu8E7N+nVo+PX/wuw/UzgInSwHIiAwpReRUhs+O/Y2hS02bUnNt7RwAAABjd9bq3u+m0nxpzAM9jidFRF/6lTQze0PtLHAqFICMTl7LtwxDXhrzW0Nenwj85of37NldOwsAAMD4Nb9WSl6rneJUtZEil+aPdu6/85u1s8CpUAAyOgtH7vt2NPkbY94qPkdEG+0zu37Xj9fOAgAAMHqzzX058tp4r/KeXCn5SJvSf0mPLgsPE6MAZHRSRC4RN439jSGllNIQ76idAwAAYPRy/642dTum2p7lnIey0t5bOwecKgUgozSsNn/QD2XUi8TmKBFNfs3yzsvPr50FAABgrJbm588tQ7wzT3jwXNt223M3XFc7B5wqBSCjtHt1710R8dWxTwPu2u4HIo68rnYWAACA0Wr2XNO1zYW5do6noESJNDO89cFzzlmonQVOhQKQUUoRpZT86fHWf+tKRJQ0c33tHAAAAGNUImYiN7843bF/64aIaKO9Ym51/jW1s8CpUAAyWl3Ofzz0/YNjLgFzlEgRL12cu+iK2lkAAADG5tCOy34qNfHCYcLTfx+VUkqplHfXzgGnQgHIaO1Y2XdvRPOn7YinAZeI6Np0Vppt31Q7CwAAwJiUiDS05X9qUzPei7qTMESJSOlVj8xd8ozaWeBkKQAZtZLKTWP/nihHREpxbYloa2cBAAAYi4N7nvFDKeXXbYbRfxGPDgBp9rQzzbW1s8DJUgAyctv+dBjyfWN+oR59M3vRgV0Xv6B2FgAAgLEoa0d+cSZ12zdH/bdufSOT4e0lLt1WOQqclDH3KhALy//4YOT44zHvBhwR0aVmpl1rf652DgAAgDFY3rnzaRHpus0y+u9RQ5RITfMjy3P9S2tngZOhAGT0chefyqWM+l2jRIkyU64u5503XzsLANTSbJF/2ohIMfJvJwEqG9qnvbVru/Nz7SAboE1NirnWZiBMSlc7ABxPTo98NZdde5toLxvrm8cQESniBw8emHlpRHyxdh4AOONKyTnKkYiy6YuxIZqmzKQhVmsnARinElfMLeXV95V2c1YOQ5SIXH7m4I5Lf2Dnob3/VDsPnIjNeTSyqexZXHxkeedZf9B06QN5xMPH29SkoeuujVUFINOU4tSGs5Sj/zzupoAtpI0UQyp/3aTm39XOciaUUpr57avfjuXaSQDGaWlh9fVdap+/2ab/Pmp9M5DuvL4d3hwRH66dB06EApBJKGn49FDi/ZHSaKet5yhRUrrqwMJzztm19K2HaudhXFJEzKQT6MUqfkY6EiVKyYdPbvROKm1qtrWP6fzWUrs9lTzaYxXYICUWdy7edXvtGADUl0p8IDUpVf1wu8FKRERJ7ykRv54e3RsERkwByCSszq18Y3Zt/ttdxL8Zaoc5hhwRbdtcNMTqT0XEZ2vnYTxSRJQh7z/SpM9HDP2xfiwNzWpuygPNMT4p5YjUDmUpon1weJJRdm2kPiL+qQxHTupwKbNpuW1nDp/M70REDP2wkNeGuX++nUjDzl1H7jjZ2wGmLrW1EwBQ38GZS1+QI7+m38TlX8TRzUAiXnxg10UvjAP7/lvtPHA8CkAm4dyHHlpa3j7/uTSb/uOYv0VKEZH68o5QAPIYTUQMUfYuHLj7XbWzPKnTuZbV90/jbQEAMBl5Lt7btd3cZi8AIyLa1MyUYXhHRCgAGT1TtJiMYWb4nb7ksQ4AjIj1b4FKyq9c2Xb5pbWzMDpNiYu21w4BAAAbZXnn5edH5Ldt1rX/Hi9HiWjS1Y/sft6e2lngeBSATMauA+3fRM7fbEe8v8D6YrDtnn62f0PtLIzRMN4XLwAAPFVNeXvXdk/bGvXf0WWgUndZ1x94fe0scDwKQCYjxd7DEenmsTcoJSJSxDuKnVABAIAtosTTd5Qy/LuyRUb/PVZJ6d2u/xg7BSCT0qw2t/RDPp0rlZ12Q5SIHC8+OPOM59bOAgAAcCYsz8++vm275456zaYNkKNEaoZXHtzzzCtrZ4EnowBkUnas3fV3EekbY54GHBHRtd32sm3tLbVzAAAAnCEfHPdV2sYoEdGlbkcpwzW1s8CTUQAyKSmiT6V8duxvLDkiosTVJaKJmZRr5wEAANgoB3df8sJo4tVbYeffJ5KjRMnlbd8777z52lngWBSATE5eW/t8P/TLYy4BhyiRmua5h2YueUGbypHaeQAAADZK6eMXu9TM1M5RyxARbcRzdq7ueEXtLHAsCkAmZ+HIfd+Opv2rZuTTgNvUtHl7um4tGQEIAABsToe2X3RhRLl22KKj/x7VpCbl1Lyvdg44FgUgk5MicqT86XHXf0cXgx3iqlTSD2zFnbAAAIDNLzdxXdt15271K54hSsQwvHb/3KWX1c4CT0QByCQNh9MX+yEvjrkEzBFR2nh2Ku2rDQEEAAA2m3LOOQulTe834OHoZiBtu6edjatrZ4EnogBkknav7r0rIv3F2KcBR0ptRHlr7RgAAACn23K/6w1t6p491A4yEiUiUonrSkRXOws8ngKQSUoRJZX+UyOv/yIiomnTBbUzAAAAnE4lIsWQPziFa7IzZX0zyHjR8vzFL62dBR5PAchkNTn+dOj7B8f+hmP6LwAAsNksLVz4kmjiJ3vTf/+FNjVNKs07a+eAx1MAMlk7VvbdW7ruy+3YpwEDAABsMk2aeX+XGlNdHydHiZLy1cs7Lz+/dhZ4LAUg0zbkm3zfBAAAcOasbLvg4pKHnxuM/vtXckR0bXd+KvmNtbPAYykAmbiZ24Yh3+eFDAAAcGb0Xfeeru3OVv89sRIRuUvvKWG6GuOhN2HSFpbv+H406Q9HvxswAADAJlD2vHB3NOU9xei/YxqiRMr5pYdmLvvh2lngUQpAJi9H+c1SincfAACADXbwyINXtam7YqgdZOS6tt2WtxebgTAaCkAmL6dHvjqU4U4vZgAAgI1TIppo8y/XzjEFQ5SIVH5+/+4fOat2FohQALIJ7FlcfCRK3GoaMAAAwMZZWrjgZSWal9v84/hyRLTRPqMb9r+mdhaIUACyaZSbh5K9CwEAAGyQlGbe36WmrZ1jKlJElJTeXTsHRCgA2SRW51a+ERHf8k4EAABw+h2eu+QZKcebjf47cUOUaEq86sDshc+qnQUUgGwK5z700FKspd9NpgEDAACcdv1s+oWubfao/05ciYiubXal2e6a2llAAcimkbu13+tLthkVAADAafTI7uftKSm/0+i/k5ejRMRwfYmn76idha1NAcimsbDU3R45/01rFCAAAMBp06wtvalN3eW5dpAJGiIiNe2VB+fSy2pnYWtTALJppNh7OKK5Wf0HAABwepSINrr8S7VzTFmbmlTamffWzsHWpgBkU2lW0+eHIa/WzgEAALAZLM9f/P+3d+/BkZ3nfed/z/uebjSABjCY4Vx4BUlRsk2vrLgUUZITu+SSVaJdjkV5bSsiZbpoSZb8z25Vams3tZVU4tRW5Y+Uq1KVpBTHkS+62LpR0urCyJaVWDYjyrRlRZZMZ6URyeHMcAYznMEA3QD6ct732T96MJz7BYOZgwN8P1UoTAON7uf0dPfp93ee97xvDLI3Mv13/ZJcHvODK+N33F51Ldi+CACxpUwMn//bHPRXTAMGAAAAgA2Qw69HC2QH18ElNUKxa9iID1VdC7YvXsTYUkwq5fZJ4j8AAAAAuD795u2vtKCfpfvv+rmkID3iUqy6FmxPBIDYcqzf/6MylV1CQAAAAABYv2GMjxUxTBP/Xb/TIeoDnanbX1d1LdieCACx5bQHR74rha8HpgEDAAAAwLosTt+/0xv2CN1/G6ewEM3DI1XXge2JABBbjklZ0T9B/AcAAAAA62Pl8kOFhbty1YVsIXk0EfjnO+1X3VJ1Ldh+CACxJaWe/UmZ8iIhIAAAAABcG5eiBXsvvX8bK0sqYrjNfPnBqmvB9kMAiC1ppn/geTd9lWnAAAAAAHBtlsdu+0kL/gDTfzeeS3IrfsXFYBU3FwEgtiSTPOT0cd5RAQAAAOAaFY1fjxbIC26ALJeF/GPLs6+4v+pasL3wgsaWFbK+msryJUJAAAAAALg6nZ2v/CHF/CDdfzeGSyqsmFAvPVx1LdheCACxZU2sHjrsri9HOqsBAAAA4OqUg8cKKyaI/26cLJc30i++tGvXVNW1YPsgAMTWFsIn2XEBAAAAwJV12u1blPUw3X83VpIUFe8b67ffXHUt2D4IALHFNZ5MKR/iiQ4AAAAAVxBmf6GI4fZcdR3bgJmZuT9adR3YPshFsKVNdfcfN8//hdWAAQAAAODSXGooh3fT+3dzJLlk9qZTY3fdW3Ut2B4IALHlpRg+7e7sxwAAAADgEjpTc2+JwV7L9N+bwyUVMcwWRX571bVgeyAAxJaX7dTXk9L3ebIDAAAAwIVcMknvMzOmTt1EWZKbvcs116q6Fmx9ZCLY8mYXF08p+xeZBgwAAAAAF1qevfeHzfJb6tr9F6VajvaSXBbCa7pj5RuqrgVbHwEgtoniM8lzPfdmAAAAAHAD+XDw7oYV43UcMJmk5H7QUzpWxxAwWjCNRRYDwQ1HAIhtYbm7+lee89/GqgsBAAAAgE2kOzm5R7J31rf7z+Sl/TP3+OlYwz7AJJey/+zyxNy+qmvB1kYAiG1hn+aXLcXPWQ13CAAAAABwo6S455eKWOzNVReyDkFS6fng1Mrq46EcfqKOs75Gi4EUu3PDf67qWrC1EQBi28jF8HOl51R1HQAAAACwGbjuGA+5fI/XuPvPhvZR0/zyZL94ynP+mzp2Abok9/zLTkaDG4gnF7aNqc7hbyrrm3XcIQAAAADARutM2VtiLF5Txy4JkzRMudNIg98dXT7Qk+If1jHkSHIFxdcvTd/x2qprwdZVx9cGsC4mDSR9hvgPAAAAACRzva+u46Mok6J/aWzw4nfXfpaH5eNlyot13KZooRGyHq66DmxdBIDYVkLfvphS7lddBwAAAABUabkx96OS3lzWdPpv8pytlz5w9s9m+oe+n11/WsdZX1kuBXvo1MyrZ6uuBVsTASC2lYnh899RyE/XcYcAAAAAABslj+mxIhZjVdexHlGmLH9qsn/4z877lZvp9+oYaWZJ0Yq7i3LprVXXgq2JABDbikkpe3yc+A8AAADAdtWdvHePlN+Ratr9Z5JiGX7bpAtOXzhsLP235OX+uoYdbvaoi44VbLy6viaAdbN+/4/KVHZ5RwUAAACwPaV3FbHYU8f4L0gqvXx+2Jj63MV+v3NhYdGG4fE6zvrKcknpx7vNfT9YdS3YeggAse20B0e+K4WvhRruEAAAAADgerhunZD0Hq9p91+UyTx8eMfitxcudR0r9bEypd7NrGsjuKQiFm1NtH6p6lqw9RAAYtsxKSs604ABAAAAbDvddvOtoQg/dMHc2RowScOUF9Mgfehy15sYHviWy56sYxegy+XZ33Fs9+521bVgayEAxLZU9Isvlak8Wb/dAQAAwPbiZqtV1wBsMe+v6zgoyqScn5jpH9p/ueuZ5CHrD+q4nUlSlH5wsj/xD6uuBVtLUXUBQBXGe8++0J2866tR9va6LnsPAACw1Y2mKPo7O9N37AplXEkWkktHYzkoo8V+Gi86crfYW110K8ocmsPJ5dYpaTmYDtRu+h9woy3P3PXa7PrJuo6BSs/Jo/2Hq7luDo0v5DR8MUS7Ld/owjZYsGCl9KuSvlR1Ldg6CACxjeXHpfj2qqsAAADAxWVJRRHeFhTepsZZg5eiqVIuT8NVSaEsGqekUCrkYbfdOSXJuuHORVcYSrnn0nwY5YlHPcahDcuueTxxdqAYxqybQ6PfWOn3Uoxdt5AnVtKi1Mqm/f3KHgRgA3mpdxdFaNQxAIwyZZVPtTuHnrqa60919x/vTs59Psjel2u2vUkupfxTC2Nzd8/2DzxfdT3YGggAsW2Zx6+UqZwPMe6t2xEhYKtwqZDui8uTeSbkQSOmPDmcGGuFNBgPA00MG2HY7h78C5OGVdcKAKjGpYIKkxQsjkuSRdu7NtUvxJeHOGaSFF6+BT/9VTQknRsoDjy7cuoPmo2+pI6CcrcdF6V+XgsTLeXFHHXKzHqycEx5OAxlcUSyXBY6GvvDQdmKS4XFYbmaus2Q+4PVzsqMdq8QIqJqK+N33J7lv5hqFoadI+kDNjo2cFViGn6ojI33yqxWpz8bLQYSZ93yQ+rr31ZdD7YGAkBsW5MrB452Jua+EqI9XLcjQsBm4VKUbh1bmWhOhzxspPE0bbnVyMlmzK0paa97aqmwve65FYLtcc9NZdunEJrdrBmpXyjEmWSxkWJsK6exHBqtRss0TOX+ee39e9I8ASAA4BxrWd7Lly5xpatkZmaylkW1TDYjSSFKa6dNN5MUzgsTrSmNssTRwKrVlHtO7mlYFN5NFvtxenqlm/srHc31FNRd60g8EyKWuReyzbupp7Kc94alUBSLOfQGcbVYGk1rDovS/uG1BB/A+VKMv1zEcEsdu/+CpOTl/rLY9YR06Kr/rtV78S+7xdw3YrTX1S34dEnmeqdL/96ksup6UH8EgNjegj7l0sNVlwFUaRTi7W2tTIxNhzxoptb4TMjDsdz3tjeKHSFrxi3t8kbRluc98jxxboCnMQVN51w0lOKMS40iWuPlw6xx9M3CqF3DotaOwfrpzowsSdFGq57J5JKGow9pq3sV6vVpDQBQS1cMFK9yb2Rm0WTRCmuNuhLD6SDxEh2JMZ7ZVapoKksqc9lXHhukqKXRtObhojQ37AQtWlI3x3zCspZVxBOWdMqSL1rMJ1JjuH/q5NG/u9Ztx9bnu3ZNdYf5Ma/hqrjS2vRf+/Ds4rdOXcvfmTRcMv+ISa+7UbXdKEkuC/r73fadb1D34JNV14P6IwDEtpbD5FflnReCxbs4nIq6c93fXNCR8db4ZDumPFlONMdzWc6EUIynUntDMZj20NylspzxYDMm7ZXCeDdrRkEtSdM5N5rKaSYpjjVbYfQJca37wSVZvCDAWxsweRxV4br0dK11HHgl/AMA1MrLQeL6QsTTU5vHTBqzaFPSy9OaR12IkiuMWqJ8dFnBFBSVhvEPxcFtXES3nH4wml5Vty44afSaGCY/lYb24fX8fTksPmtF+S8thtm6bX20EJLrXZIIAHHdCACxrc0sPXOyO3nnH4XC3ss0YNxgLh1Zvfor3zqxMtGcHqReqzE+MR17qZ28HE9F2BuizSjEPSrLGQXNjrrxNN7NnelmmBlP2adOT6VtFbExFrR2qqOxc857tHb899wQL5zuwpMG19H9AAAA1ueynYiX2Q8XkmQ+uBE1od5csm7K77dYq9PgnRFlKoN/dkf/wHPr+fudvWdf6EzMPRGjPVK36c9ZLrf8UHfynn/RXn5uvup6UG8EgNj2UgyfDu7vkdW0Hx41YY1uc98PdScnog+HMyHEyVRqb4ialdJOZdvtwXfIwh5ltbvSpIKmi9BseU7TeSy0GhpbO83QuUHe6Q4Aj2sh3tpU2qgkv/CEIfX63AMAAK7CaPdu7OVxgc7U7Q+Y6SfqFn6tKT2X7uVvXc9thMI+lD0/LLNajfmypCIWe/Mw/7Sk36u4HNQcASC2vbLofC2Uk9+Liq9KVReDLSlJUrD7fKzxZ0rlZIxFK+pMfiepkOI6OvLq+RkOAAAAN1Gw8N5ooahjABhlStn/7De7h5++ntuZWOo/2W3HZ2IsfrhuYz6XlAv7FZd+3xgB4DrUswcY2EC7Tp5cUvb/QgMgbiizZhGKXcFCK8s1OP/LXf3TXwO5hnKVciW5stjTAwAA4NottO6ZUw5vr+O5/9aY59/6jetcAdt0ZEVmnwo1HPMluSznN6w07v6RqmtBvREAApKk4jPJc333iqgFwjwAAADcTEUzPVrEsLOOnz+jpOTl9/pjy1/akBvslx8bptypXwQoFTG28ri/q+o6UG8EgICkU93yac/527GGR4QAAAAA4Hw++9oZyR+ta/efyaQcfnfXyZNLG3F7U4Mj/1OyJ+s45ktyyfznF2Zes6PqWlBfBICApDt1aNVS/EL9dgUAAAAAcKHlwUs/E62477rmzlbEJKWyfCmm9KGNveX8O3WMQ7OkqHhvkRbeXHUtqC8CQOC00Cg/W3q+YMFUAAAAAKgTl4Ji/vWq61ivKFNW/NTE6qHDG3m7ZZz9k+Tl83UMQkySmz1adR2orzo+74EbYnzp0DeV9c06toQDAAAAwJpe67Y3uMKP1XX6b+l56DF9cKNvd3bxW6ckfbqui4EE15uWmre/supaUE8EgMBpJpWSPsuLAgAAAECdlc3G+woLseo61qOQybP+dGbp4DduxO0Hsz+o48wvl1TEMG3N4heqrgX1RNYBnMX64QtlSr2q6wAAAACA9Vgcu+M+y/Zzde3+c0km/cfT/9xwE4sv/A9T/lodZ35luaT0iOvWiaprQf0QAAJn+TfD576j4E/XcWcAAAAAALEZHy2i7ahj/Bcl5TL/Xbs7+NKNug+Tkpt9uI4jviTJQrx/eczeWHUtqB8CQOAsvyHl7OEzvDAAAAAA1M2pmVfPuuV31bX7z2TKSh80HVm5ofdTxs+XqZyv47gvWjCPjceqrgP1U8fnO3Bj9csvlslP1fGIEAAAAIDtKww7/yhacU+uupB1MEllKo8FNT5yo++rvfzcvLk+X9fFQDzmB1fG77i96lpQLwSAwHmmB4f3u/T1Ou4MAAAAAGxPLkUV+deqrmO9RqdhCp9oLz83fzPuzy1+JHmuXVbqkhqh2DVsxIeqrgX1QgAIXMgV82eI/wAAAADURXfs9h8PsjfWdfpvSmU/9PU7N+v+2t3i6znnv6nj+d9dUpAe8dFpE4GrQgAIXEQcpCdSWb5Uv10BAAAAgO3Im/br0UItx/iFTC59ZXJ44Js36z5N+/vB/SN1HPOdDnkf6Ezd/rqqa0F91PLNAbjRJlYPH5Lsz+t4NAgAAADA9tJv3v7K4PHBunb/jaqO/+lm329Zxk+Xqazl+d8LC9E8PFJ1HagPAkDgEpLy41XXAAAAAABXMozxOHY7KwAAHfBJREFUsSKG6TrGf1FSSuW32t3yj2/2fe/oH3jOPHyljo0feTQR+Oc77VfdUnUtqAcCQOASoppfLlM6wosEAAAAwGa1OH3/Tm/YI3Xt/jOZcogfNB1areL+c9Dv1PGRy5KKGG4zX36w6lpQD2QbwCW0l589pmz/jdWAAQAAAGxWRbn8tsLCXbVbzlajQKJM5XxM4eNV1TDV7P556fn/q+NqGi7JrfgVF4NWXBkBIHA5QZ+s49EgAAAAAFufS40c9P66jllGU2/9D9vLzx6rqgY7caIThuGTdWz8yHJZyD+2PPuK+6uuBZsfASBwGSlOfzV5eYAXCgAAAIDNZnnynjdZtAfqOP3XJJVerlqj+TtV16KWfbz0cqVuEaBLKqyYUC89XHUt2PzINYDL2LH47QVL+uM6Hg0CAAAAsNXl99dxAQtp1P2XPXx5cuHZ71Rdy+TCs3/rOTxZx3Fflssb6Rdf2rVrqupasLkRAAJXkGJ83D3X8ZQaAAAAALaozs5X/pBifrCO3X+SlOSKSR8wVb8BJrl5+lDVdaxHkhQV7xvrt99cdS3Y3AgAgSsYNjpfy7Lv1vGksAAAAAC2qHLwWGHFROXp2TpEmTz5NyZWDnyl6lrWlMXsE8nLg3UMSczMzP3RquvA5lbH5zZwU91y4kTHc/5jq2E7OAAAAICtp9Nu36Ksh+va/WeSFPIHTRpWXcuaHYvfXlDWZ+s4DTjJJbM3nRq7696qa8HmRQAIXBX/VPKcqq4CAAAAABRmf6GI4fY6nqcoSCpTPqw8/smqazmfW/5oWcNxn0sqYpgtivz2qmvB5kUACFyFdnfsac/5O3U9wS4AAACArcF135hn/Vo9e/9G038V9IdT3e++VHUt55vqHP6GpKfrOO7LktzsXa65VtW1YHMiAASugml/35I9Ub/dAAAAAICtpDM1fHMR4t+r4/RfkzT0clVF43erruViTCql/KE6jvuSXBbCa7pj5RuqrgWbEwEgcJVSwz9det4056gAAAAAsL34KEN7n5nVMaNSlMlS+OLUyf3PVF3LpcShPlem8ngdH+BowTQWWQwEF0UACFyl6aWD31TWN+vYDg4AAACg/pZn7/1hs/yWOnb/SVLy7CrLD1Rdx+VMrB58USF+sY7jviSXsv/s8sTcvqprweZDAAhcJZOSpP+3frsBAEAdmRQKmWINvgqZpNSs+jEDgK3Oh4N3N6wYr2P8F2XyrKcn+4f/rOparsT6g48mz7V7mEeLgRS7c8N/rupasPkUVRcA1Mqg8dnUHP5TizZVu70BAGwCQVJWyeePqxCtWB2mfCTLN/0ux2VmHl6sug4A2Mo67fZuyd5Z1+4/k6Ss3x6dZ29zm+w3nuw28ndiLF5dt8fbJbnnX3bpP9tobRBAEgEgcE3ag/1/t9y685tBxU/UbUcAAHb66+XL5/Y0h/N/f17L8wXveut4G8yS3OPKtf/l9tPqNf6611p5vZlt+h2OuVtZTPSqrgNXy2OUjV6PVZcC4KqZ7XxnDHFvWcNXbpBUej6Yi8nPVF3L1TAd6HU097EgvTpVXcw1SnIFxdcvTd/xWi0d+suq68HmQQAIXAOTfMnt8Wj6iaprAYA1SV6My3SlD6hJUvLUk9wkmXvomKunUe7nSVqUcnn6clLQomSjI8eeS1k+KsVScnNZDm7zLh/Y6EoWLB630rtplB2amw9CWR7RWRlDbhY9H/jRG/JAbDGm/X31dLDqOrD1mHI/uQbBrHlV57iyS188uz/13EDRz/zbRdAIXC/XHeNd9/d4TV9NUSYf6qMzq8+crLqWq5WH6ROl9H9atJm6PerRQsNTelgSASDOIAAErpEP/Itlw3/DonbUbUcAYGsaU2N/Lw//nyy5eVgNWUeTZFHystDR2B8OJMkbYRiKYlGS5G5lP3eK4KcDQfPuan9xtyZOT8uZzKZnBhtebH/DbxHANYqD9K/yWPgPOaV2HqYxSbLYjJL2JXkRJZfSLSnalEnZQmi5p32jrD8V8rBPFkbjiGzTUm5KckVrK1lLkitoSsotyXK00Lpi0GgX/vNS4eJaAEKwiO2kM2VvKSz+L3XrRpNGr+lhyp1mGv5u1bVci5n+oe8vFXN/2pC9rW5dl1kuBXvo1Myr/9WOxW8vVF0PNgcCQOAaTfcPPtttzP1FUHgr04ABbAbj/QPPq69/fsUrEr4BkDTee/HgRnWXuhSlO5pSK3fbYSqm5ZZkngZpKow3WzLzVKaptaBRRdzlHqaClHPQPrc8Lkkh216PuSmPTZn2jQ5M+JiypnROuJiDgmYkBVkca14uWLxMqEigiLox1/ssmNXxWRplKnP6wtjgxe9WXcs1cjN9yKW3VV3ItcqSohV3W7n0Vkkfq7oebA4EgMA1Msk70R836a1V1wJsVS+fq87YTwHAJmZSkg6tSpK65x1muFgP8TUeiHDdMX52uGieQxpPM+YTIaVhazjwtiSpCHuzx5YVqeVu+0adi3Gve9mSW0tmeyWtdSw2FNRSDu2zA8VoceySnYp2zrczQaLr7ODQz7sMbIzlxtyPZuU3160LbU3ynBX0garrWI923PFfu1p4NijcW8fVNNzsUZc+XsvkGBuOgRWwDnGQnyijH7cYd/NOClzo5cUk7EyYtzZouuDY9UVeREO5kqeBFJalZh0/bwEANoBdLFy82HIzVxksjjoW5xqaXRpbHU5MnRMonu5U9EZsew67TB5VaJ/c41qYaMlmPNoOU254thkpmKQdkkcFn5ZURCvG4qU36My3s0PEtR3dWjciOz6cLY/psSIWY3UMAKNMpfJTU92DX6u6lvWwxW+d6o7PfTI27f/KNXv8R/WmH+829/2gBkf/rup6UD0CQGAdJlYPHe5O3v3fo+yhOu6IgSt5ObSzM5fD2u/ODvAu8vTPkkrPQykPlbWkEEbflUsLWnQPpVxHZWlgFueVc9/N572MPQv5hA1TN5pW8lhjtdEql617mJVFAQAbYtSxeCBpQT1pYXRO1PP3MlcdJs61pEFYHS92mKeYUpq2yfEilcOZPMwNFXFX9tAOUTNS3uEWJuVp11pH4ukQcdpCaHjWjJSjgs1I1mhauDBDPG9K8/nTmaOkJL9k9oh6Wp6469as/I50NQv2bEImKZbht0evvXqyUh8rY/rfFUOr6lquhUsqYtEuJ+IvaaDfqLoeVI8AEFg3/4TLHqq6CuByXg7u7JpCvDTqwOvLwoqSVhVyV1k9C77kHgdyHXXLveA27zH0ldO8l3klqnHU03AYWnHRQ38YB3Exh8ZwYmW4KE0m0/6rn/xF7AcA2MRMB0Z7qlWtnPnhqbOucBV7PNdcS7u6jdWV1ox5iqk1PmOeGsPeYCY347iS7bUitcxtr0IYc097ZWFSrltOnyOxraAJ5TChYFOmzNletxi3/EgRG3vq2HQQJJVePp8aOz5XdS3XY2J44Fvdsbkno+yn6nYOeJfLs7/j2O7dv7nn+PFu1fWgWgSAwDq5jX05pf7hEO12pmngRltvkDfwnJJyT9mWFLWq5F0prijkVbnPW9ayQjzu5h2VfixbXollnvdG7IcidoqV4UqKWh1vrHS0NN0/M9i5EoYfAABckelATyfUk9SRdO7Br6sMEJemJycaaXEiDdJ0EYwB/hbiunWia/Exr1notCbKlF2/v2Op3qvQmuTLWX9gUT9VdS3XKkmK0g9O9if+oaQvVV0PqkUACKzTVPe7L3Um5r4aoj1ct/NBoFpXDPMuFuSNOvJWTk+p7SvnxVGQ5ytyHbXs3Rz8WEy+lBRPjKbS5k5oxUVfGfRijEul2qvtbr9rev7KId75g45VSar1ZzcAALYc04GeltSTdLLqWi4myYtxmZJenqrsZy2WgsvrtptvjTHcX7euM2n0ebdMeaEYht+rupaNkEPjCzn1j4YY99Wt+SNYsFL6VREAbnsEgMB1iNE+nt3feeZEadh2zj5X3tmLXVyuM+90mLesbEsKvqys5dG58bQs+bwUTyj7KWUdy5a7sczz3rRuKMrlOAhLKY73Jpe1dE1B3nCDNhgAAOAqeW68NPD0tZRzWyHMKOdxBU2ZxfHm+R+fz1sg5ewVlV2+XRdGeX9dBxlRpjL458f7B56vupaNMNXdf7w7edfnguzX6tb8keRSyj+1MDZ39+wW+f/A+hAAAtdhvFj8aje1nw+K92zTDyVbzvmB3pWm2iZJycu+e+iaaVk5L0mxKys7sjivnE6oKBZyTseUfDGWeT42rZt7ZTfGuDRo7lie7g6Wr3huPKbUAgCAmpkdHvgfGuofuOZay5NxOpa9iZQnpmPsTw5dk7mwfSHEnZLvUrbdHvJOWdijbG0FTSprRlETck0VFopw/h3Y1g0Ml2fuem12/WQdz/0nSaXn5O7/qeo6NlJM5e+X0d4jswueipvZaDGQOOuWH1Jf/7bqelAdAkDgOtjCwmJ3sv0nobD31u1I0HayFuSd06V3iem2a4GepCUpLiunpdHCF9aRfN4Vj1nWgmcdi9Hns+dOKIrFuJq6KYbliRVfND2/etmCzu7K6724odsKAACw2ZgO9LR81hkO12YmXOYAp+/e3V7ttqbjIE+W43Eq9QYzZaOYVfadCrZHQTvlabey7VXQlLKmFcK0TFMXDQwv0mE4CglHYeHo12nTNNx5qXcXRWjUMQCMMmWVT7U7h56qupaN1Oq9+JfdYu4bMdrr6jYt2yWZ650u/XuTyqrrQTUIAIHrVaZPpBjeXbcjQXVnksXzAj3TxUO9geecsjqSdxW0qGxLZzr0pHllnVT2Ywp+XPKFUaC3ulQWk8uTy7501QtfAAAAYEPYaMXS0aImg9M/vFxgqDvGVyY0U5TD6XK8aJ8VGN6ioD2S7ZVpp0z7lDVjwSY95xkFn5bFyYZMZQ7jN3zDrsJq67Y7S/N31C1kOkfSB0y1b8Q8h0nDJfOPmPS6qmu5VkkuC/r73fadb1D34JNV14NqEAAC16nX7v9Fc9j4XiH9QKq6mG3EG41cel7K8lPKecmCn/IcTlnwo/J4LCvPK6eTofSjeSws2iAvFTF2xsd7S6c/UF4Z024BAABqwXRoVStalXT0SoGhS0G7dk32lsd2pJSmQ6tol6mxI2iwKRK3smg8UsSws57df1LK5ffLYtcT0qGqy9lw5bD4rBXlv7QYZuv2vxMthOR6lyQCwG2KABC4TrecONHptMefsNj4AdYzu3na48vf6C4Wrw9F89Ro2u2hS0+7PfvD3+Un5wIAAGCLMynrxImOpI6kTbVY2omdO6dV5l/1mq4xaDLJwwdnF791qupaboSdvWdf6Ezc+Ucx2j+uW0Cb5XLLD3Un7/kX7eXn5quuBzcfUxaBDVCU+ZOlZxoAbyI7frw7NTjyPydXDhy9bPgHAAAA1EQrTf2v46HxysJMY2ZqylTIFGWbfvBukspUnhyWg49WXcuNlIvwoey5XumfRvOxi1jsNc8/XXUtqMZmfw8BaqHVm/hr5fydWNMjdWs228mPAQAAgG0l+/FBTv+mn/NH+mn45UHK3yi93J+8PJ7dy0KjULApU9NGX5slKIwyeYif3dk78kJFJdwU00uDr+acnolVF7IOLikX9iuumg9csS5MAQY2gGl/v5vu+bxFvabqWi5ntBquvbwq7nkr4cbRyY9blRUIAAAAbGOTnRe+IOkLa5ddCkvT9+8Y65+YSa2x2dQbzKSi2Kegfdm0z6Tb5GmvPO5UyDOSZqQwe7FVkNdWQM6S/PTqxxvZxlZ6LuXlb2/gTW5KpiMrHbvzU0H2w3VbqCXJZTm/YaVx949o+Py3qq4HNxcBILBBrPRPpaj/Q1E3PUBbC/R0+ojfpVbEHXhOpfsps7ygHBal/JLkR8yKo1I+ktwOhugHbnb9AAAAAC5kUtbSMyclnVRfz0m66OImFwkKdwwL3Rbdbs1F3Kuc7pDZPmXtUAizknaY2XTz7EawC0LCl4PCKylkKnP+89/sHn76uje6Dvrlx4bN8E8s2lS9IkCpiLE1HM/v0lAEgNsMbZ9bVHfHPT/iuXzKLE5s9jekKCml9DftbvlG05GVqutZL5ditz33tRjDAxt5JOhMt95aO//aq/asu0iSkpcryraoYAumfEIpn3ArDkk6bO6Hk4f5opFPlD0/pbGphemlZ06Zrmp/DgAAAGALcN03tjIxnM3lYEcRbGfOjR25le+yoW5VsH0e/C553KGQdkqavaCb8KxGg7WgcHTJlFL6xanuC5+qZMMq0Gnf/cUi2s/UbTGQICkrP1tq9rVbdbEWXBwdgMAGMSl1pM+Y9MA1/M054d6ZKbnSmX8kuZKnrhROKudTFnTK3Y/I4iFzHfYQDikN560xPBkHcbEzNVzYc/x497J3fJGjhgAAAAC2NtP+vlZ0VNLRMz8cXHg9n52d6a80d57dTWhW3CnpNvPyDsWwyxV2KfusBd/l2fa3u8MnbtqGbAbRfs+ln6m6jGuVJUXFe5UW3izp8arrwc1DAAhsIB8MP5Oajf97rRX8/HBvraV+zenOvWXlcErKJxTiSbm/aEEH5XY4ZD+UlI+rOTwZemMnJ1bCKdOB3mWLuPxvAQAAAOCybGFhUdLi5aYdH9u9uz3VaczmscauPBiu1nk213q01f6Trp86ECzO1W1alUlys0dFALitEAACG2hq8OL3Oq27/mZC8R8M5Sq97CvbyRRswTyfUNK8x3Dg5c49P2b9wUuhaC6Mr4aTpueJ7wAAAABseqdnHXXV08Gqa6mCLX57oTN95+NB9k9yzaYBJ7mC601LzdtfOT04/L2q68HNQQAIbCCTcif7Px2639Mv+y82xpsvhcHg5BWn5Q5vYpEAAAAAgOsWzP6g9Py/yaxW2YpLasQwPWwWv6CB/nXV9eDmYBGQLYpFQAAAAAAAuHFcisvTd/7XYMVPbORCkDfDaBxe/m27mx5gHL49hCtfBQAAAAAAAGczKbnZh+vYWZUkWYj3L4/ZG6uuBTcHASAAAAAAAMA6WBk/X6Zyvo7hSrRgHhuPVV0Hbo46PkcBAAAAAAAq115+bl4hfKmhoFh1MdcoyeUxP7gyfsftVdeCG48AEJUJkqJMDZkka0u5jp3TAAAAAIBtrBjotwaeXkieVguZmmtfNvpqyBRlm24RBpfUCMWuYSM+VHUtuPFqtVIN6sUkhdNvckGS2egNZu3cqAPPpXI+nuXH3fRX0lQpzVdWLwAAAAAA12q8d+Cp5TD3eg37u1NIe3Js3OUx3+3md0lhTrI9ynmXQtjdtHCmUdBMcpeyJJef/n5zuaQgPeLSf7TRqQGxRREA4roESSZT1IUBX5IrKS/I8wmXzYfSj6gI33dPL+R+fK5o+Xwoy+NHe43j9+hAr7qtAAAAAABg/SZXDhyVdPRiv/Nbb53oLeiWQbPYU65qj7fsFS6fszLPucU7FNItUtgTzabjWp+gjZpq3Eep3FpAuNFOr178QGfq9tepc/jrN+AusEkQAOKyznTvyV7u4jvrkMRaF1+Sz0s6Zq4DbuE5xbBfKR1pDvJ8rzVzYmbpmZMX3Hj/Jm0EAAAAAAAVsSNHViS9oJ5ekCQNzv394vT9O0NvYU9qFrdkD3e66V7zfI9bmJPyHsl2K9jupoUzGc753YPX07pXWIhlDo9IIgDcwjbbFHRskO6Oe37Ec/mUWZy4UgvxOVN1154Rp/8oSyq97MrsmFI4Zj486rH4vpSePdPF1y+Pt3o75k3PDC5+DwAAAAAA4Fq55lq91nB3Hit2lz3bG8fsPpfPWSpf4Vbcpui3yH1fYcXEmUUeTo/rs4+G9ll+2anFQVJO/qI09pqp7ndfuqEbhMrQAbhNrIV8a118ki42Vfe4uY66wkH38FxMvj+n4QFNpmMaTB+76BvBmS6+F2/8RgAAAAAAsI2YDvTU00H1dFDSBTPpOu1X3WL9xX0p5N05Nu5KbvdZUb7CTHe4tFcWdkfZ7NlTi6WXuwfz6anFRQy3pXL5QUkfuVnbhpuLDsAt6tTM3I82zP664SaXNJQrZz9hpnnJ513+nOXwfcXwPaXySHOQ55uTK8dsYWGx6toBAAAAAMD18dnZmcHyxJ5BM+y10dTiezzkV5jsHsn2umtvCLZrbZXi1ZSebncnf5zZfVsTHYBb1Fh/+FJZxH/XMz9kofFc0R8cTh7ne9O9+T3Hj3cv+ke8xAEAAAAA2BJGDT4Lixroe+f/7tju3e2xpdbeaGnvYGzsdqXyB6R8S7c9mFFXx6uoFwAAAAAAAAAAAAAAAAAAAAAAAAAAAAAAAAAAAAAAAAAAAAAAAAAAAAAAAAAAAAAAAAAAAAAAAAAAAAAAAAAAAAAAAAAAAAAAAAAAAAAAAAAAAAAAAAAAAAAAAAAAAAAAAAAAAAAAAAAAAAAAAAAAAAAAAAAAAAAAAAAAAAAAAAAAAAAAAAAAAAAAAAAAAAAAAAAAAAAAAAAAAAAAAAAAAAAAAAAAAAAAAAAAAAAAAAAAAAAAAAAAAAAAAAAAAAAAAAAAAAAAAAAAAAAAAAAAAAAAAAAAAAAAAAAAAAAAAAAAAAAAAAAAAAAAAAAAAAAAAAAAAAAAAAAAAAAAAAAAAAAAAAAAAAAAAAAAAAAAAAAAAAAAAAAAAAAAAAAAAAAAAAAAAAAAAAAAAAAAAAAAAAAAAAAAAAAAAAAAAAAAAAAAAAAAAAAAAAAAAAAAAAAAAAAAAAAAAAAAAAAAAAAAAAAAAAAAAAAAAAAAAAAAAAAAAAAAAAAAAAAAAAAAAAAAAAAAAAAAAAAAAAAAAAAAAAAAAAAAAAAAAAAAAAAAAAAAAAAAAAAAAAAAAAAAAAAAAAAAAAAAAAAAAAAAAAAAAAAAAAAAAAAAAAAAAAAAAAAAAAAAAAAAAAAAAAAAAAAAAAAAAAAAAAAAAAAAAAAAAAAAAAAAAAAAAAAAAAAAAAAAAAAAAAAAAAAAAAAAAAAAAAAAAAAAAAAAAAAAAAAAAAAAAAAAAAAAAAAAAAAAAAAAAAAAAAAAAAAAAAAAAAAAAAAAAAAAAAAAAAAAAAAAAAAAAAAAAAAAAAAAAAAAAAAAAAAAAAAAAAAAAAAAAAAAAAAAAAAAAAAAAAAAAAAAAAAAAAAAAAAAAAAAAAAAAAAAAAAAAAAAAAAAAAAAAAAAAAAAAAAAAAAAAAAAAAAAAAAAAAAAAAAAAAAAAAAAAAAAAAAAAAAAAAAAAAAAAAAAAAAAAAAAAAAAAAAAAAAAAAAAAAAAAAAAAAAAAAAAAAAAAAAAAAAAAAAAAAAAAAAAAAAAAAAAAAAAAAAAAAAAAAAAAAAAAAAAAAAAAAAAAAAAAAAAAAAAAAAAAAAAAAAAAAAAAAAAAAAAAAAAAAAAAAAAAAAAAAAAAAAAAAAAAAAAAAAAAAAAAAAAAAAAAAAAAAAAAAAAAAAAAAAAAAAAAAAAAAAAAAAAAAAAAAAAAAAAAAAAAAAAAAAAAAAAAAAAAAAAAAAAAAAAAAAAAAAAAAAAAAAAAAAAAAAAAAAAAAAAAAAAAAAAAAAAAAAAAAAAAAAAAAAAAAAAAAAAAAAAAAAAAAAAAAAAAAAAAAAAAAAAAAAAAAAAAAAAAAAAAAAAAAAAAAAAAAAAAAAAAAAAAAAAAAAAAAAAAAAAAAAAAAAAAAAAAAAAAAAAAAAAAAAAAAAAAAAAAAAAAAAAAAAAAAAAAAAAAAAAAAAAAAAAAAAAAAAAAAAAAAAAAAAAAAAAAAAAAAAAAAAAAAAAAAAAAAAAAAAAAAAAAAAAAAAAAAAAAAAAAAAAAAAAAAAAAAAAAAAAAAAAAAAAAAAAAAAAAAAAAAAAAAAAAAAAAAAAAAAAAAAAAAAAAAAAAAAAAAAAAAAAAAAAAAAAAAAAAAAAAAAAAAAAAAAAAAAAAAAAAAAAAAAAAAAAAAAAAAAAAAAAAAAAAAAAAAAAAAAAAAAAAAAAAAAAAAAAAAAAAAAAAAAAAAAAAAAAAAAAAAAAAAAAAAAAAAAAAAAAAAAAAAAAAAAAAAAAAAAAAAAAAAAAAAAAAAAAAAAAAAAAAAAAAAAAAAAAAAAAAAAAAAAAAAAAAAAAAAAAAAAAAAAAAAAAAAAAAAAAAAAAAAAAAAAAAAAAAAAAAAAAAAAAAAAAAAAAAAAAAAAAAAAAAAAAAAAAAAAAAAAAAAAAAAAAAAAAAAAAAAAAAAAAAAAAAAAAAAAAAAAAAAAAAAAAAAAAAAAAAAAAAAAAAAAAAAAAAAAAAAAAAAAAAAAAAACAbe3/B7GAktJzG4FCAAAAAElFTkSuQmCC;" parent="1" vertex="1">
          <mxGeometry x="320" y="-90" width="520" height="293" as="geometry" />
        </mxCell>
      </root>
    </mxGraphModel>
  </diagram>
</mxfile>
